<svg width="14" height="16" viewBox="0 0 14 16" fill="none" xmlns="http://www.w3.org/2000/svg">
<path d="M13.1934 3.43598L8.00656 0.283482C7.38437 -0.0946428 6.61531 -0.0946428 5.99312 0.283482L0.806562 3.43598C0.640312 3.53692 0.64125 3.78817 0.808437 3.88786L7 7.57973L13.1919 3.88786C13.3591 3.78817 13.36 3.53723 13.1934 3.43598ZM13.6259 4.83067L7.5 8.48317V15.4775C7.5 15.88 7.91844 16.131 8.25156 15.9285L13.0066 13.0385C13.6216 12.6647 14 11.9779 14 11.2354V5.05723C14 4.85692 13.7925 4.7313 13.6259 4.83067ZM0 5.05723V11.2354C0 11.9782 0.378437 12.6647 0.993437 13.0385L5.74844 15.9282C6.08187 16.1307 6.5 15.88 6.5 15.4772V8.48317L0.374062 4.83067C0.2075 4.7313 0 4.85692 0 5.05723Z" fill="white"/>
</svg>
