<svg width="16" height="16" viewBox="0 0 16 16" fill="none" xmlns="http://www.w3.org/2000/svg">
<path d="M15.7852 0.596867C15.7652 0.503352 15.7185 0.417626 15.6508 0.349994C15.5832 0.282362 15.4974 0.235702 15.4039 0.215622C14.3974 0 13.61 0 12.8254 0C9.59952 0 7.66463 1.72498 6.2208 3.99994H2.96368C2.68551 4.00018 2.41288 4.07772 2.17625 4.2239C1.93961 4.37008 1.74828 4.57914 1.62363 4.82775L0.0788401 7.9152C0.0217912 8.02958 -0.00507541 8.15662 0.000790178 8.2843C0.00665577 8.41197 0.0450589 8.53602 0.112355 8.64468C0.179651 8.75335 0.273607 8.84302 0.385306 8.90518C0.497006 8.96734 0.622742 8.99994 0.750583 8.99987H3.99427L3.29189 9.70205C3.10435 9.88958 2.99899 10.1439 2.99899 10.4091C2.99899 10.6742 3.10435 10.9286 3.29189 11.1161L4.88294 12.707C4.97583 12.7999 5.08611 12.8736 5.20748 12.9238C5.32885 12.9741 5.45894 13 5.59032 13C5.7217 13 5.85179 12.9741 5.97316 12.9238C6.09453 12.8736 6.20481 12.7999 6.2977 12.707L7.00007 12.0048V15.2498C7.00004 15.3775 7.03264 15.5032 7.09481 15.6148C7.15697 15.7265 7.24663 15.8204 7.35528 15.8876C7.46393 15.9549 7.58797 15.9933 7.71563 15.9992C7.84329 16.0051 7.97035 15.9783 8.08474 15.9213L11.1699 14.3779C11.419 14.2535 11.6285 14.0622 11.7748 13.8254C11.9211 13.5886 11.9985 13.3157 11.9983 13.0373V9.77455C14.2673 8.3277 15.9994 6.3871 15.9994 3.17808C16.0025 2.39059 16.0025 1.6031 15.7852 0.596867ZM12.0014 5.24993C11.7541 5.24993 11.5124 5.17662 11.3068 5.03927C11.1012 4.90192 10.9409 4.7067 10.8463 4.47829C10.7516 4.24989 10.7269 3.99856 10.7751 3.75608C10.8233 3.51361 10.9424 3.29089 11.1173 3.11607C11.2922 2.94126 11.5149 2.82221 11.7575 2.77398C12 2.72575 12.2514 2.7505 12.4799 2.84511C12.7084 2.93972 12.9036 3.09993 13.041 3.30549C13.1784 3.51105 13.2518 3.75272 13.2518 3.99994C13.2518 4.33146 13.12 4.6494 12.8855 4.88381C12.6511 5.11823 12.333 5.24993 12.0014 5.24993Z" fill="white"/>
</svg>
