<svg width="22" height="22" viewBox="0 0 22 22" fill="none" xmlns="http://www.w3.org/2000/svg">
<path d="M20.1979 0H2.45347C2.06129 0 1.68518 0.16462 1.40787 0.457646C1.13055 0.750671 0.974762 1.1481 0.974762 1.5625L0.974762 20.3125C0.974762 20.7269 1.13055 21.1243 1.40787 21.4174C1.68518 21.7104 2.06129 21.875 2.45347 21.875H20.1979C20.5901 21.875 20.9662 21.7104 21.2436 21.4174C21.5209 21.1243 21.6767 20.7269 21.6767 20.3125V1.5625C21.6767 1.1481 21.5209 0.750671 21.2436 0.457646C20.9662 0.16462 20.5901 0 20.1979 0ZM18.7192 3.125V9.375H12.8044V3.125H18.7192ZM9.847 3.125V9.375H3.93218V3.125H9.847ZM3.93218 18.75V12.5H9.847V18.75H3.93218ZM12.8044 18.75V12.5H18.7192V18.75H12.8044Z" fill="white"/>
</svg>
