<svg width="24" height="21" viewBox="0 0 24 21" fill="none" xmlns="http://www.w3.org/2000/svg">
<path d="M21.4342 4.40816H4.52369C4.13154 4.40816 3.81391 4.07939 3.81391 3.67347C3.81391 3.26755 4.13154 2.93878 4.52369 2.93878H21.5584C21.9505 2.93878 22.2682 2.61 22.2682 2.20408C22.2682 0.986786 21.3148 0 20.1388 0H3.81391C2.24574 0 0.974792 1.31556 0.974792 2.93878V17.6327C0.974792 19.2559 2.24574 20.5714 3.81391 20.5714H21.4342C22.6772 20.5714 23.6877 19.5828 23.6877 18.3673V6.61224C23.6877 5.39679 22.6772 4.40816 21.4342 4.40816ZM19.4291 13.9592C18.6452 13.9592 18.0095 13.3012 18.0095 12.4898C18.0095 11.6784 18.6452 11.0204 19.4291 11.0204C20.2129 11.0204 20.8486 11.6784 20.8486 12.4898C20.8486 13.3012 20.2129 13.9592 19.4291 13.9592Z" fill="white"/>
</svg>
