<svg width="25" height="26" viewBox="0 0 25 26" fill="none" xmlns="http://www.w3.org/2000/svg">
<path d="M19.6498 3.25H5.29652C4.16408 3.25 3.24605 4.22005 3.24605 5.41667V20.5833C3.24605 21.78 4.16408 22.75 5.29652 22.75H19.6498C20.7823 22.75 21.7003 21.78 21.7003 20.5833V5.41667C21.7003 4.22005 20.7823 3.25 19.6498 3.25Z" stroke="white" stroke-width="2" stroke-linecap="round" stroke-linejoin="round"/>
<path d="M8.88484 10.8333C9.73417 10.8333 10.4227 10.1058 10.4227 9.20834C10.4227 8.31088 9.73417 7.58334 8.88484 7.58334C8.03551 7.58334 7.34698 8.31088 7.34698 9.20834C7.34698 10.1058 8.03551 10.8333 8.88484 10.8333Z" stroke="white" stroke-width="2" stroke-linecap="round" stroke-linejoin="round"/>
<path d="M21.7003 16.25L16.5741 10.8333L5.29652 22.75" stroke="white" stroke-width="2" stroke-linecap="round" stroke-linejoin="round"/>
</svg>
