<svg width="11" height="11" viewBox="0 0 11 11" fill="none" xmlns="http://www.w3.org/2000/svg">
<path d="M9.55168 2.1129C9.31759 1.87869 9.03964 1.6929 8.73372 1.56615C8.4278 1.43939 8.09991 1.37415 7.76877 1.37415C7.43763 1.37415 7.10973 1.43939 6.80381 1.56615C6.49789 1.6929 6.21995 1.87869 5.98585 2.1129L5.50001 2.59873L5.01418 2.1129C4.54132 1.64004 3.89999 1.37439 3.23126 1.37439C2.56254 1.37439 1.92121 1.64004 1.44835 2.1129C0.975488 2.58576 0.709839 3.22709 0.709839 3.89582C0.709839 4.56454 0.975488 5.20587 1.44835 5.67873L1.93418 6.16457L5.50001 9.7304L9.06585 6.16457L9.55168 5.67873C9.78589 5.44464 9.97168 5.16669 10.0984 4.86077C10.2252 4.55485 10.2904 4.22696 10.2904 3.89582C10.2904 3.56468 10.2252 3.23678 10.0984 2.93086C9.97168 2.62494 9.78589 2.347 9.55168 2.1129V2.1129Z" stroke="white" stroke-linecap="round" stroke-linejoin="round"/>
</svg>
