<svg width="14" height="12" viewBox="0 0 14 12" fill="none" xmlns="http://www.w3.org/2000/svg">
<path d="M12.6109 2.57143H2.1875C1.94578 2.57143 1.75 2.37964 1.75 2.14286C1.75 1.90607 1.94578 1.71429 2.1875 1.71429H12.6875C12.9292 1.71429 13.125 1.5225 13.125 1.28571C13.125 0.575625 12.5374 0 11.8125 0H1.75C0.783399 0 0 0.767411 0 1.71429V10.2857C0 11.2326 0.783399 12 1.75 12H12.6109C13.3771 12 14 11.4233 14 10.7143V3.85714C14 3.14812 13.3771 2.57143 12.6109 2.57143ZM11.375 8.14286C10.8918 8.14286 10.5 7.75902 10.5 7.28571C10.5 6.81241 10.8918 6.42857 11.375 6.42857C11.8582 6.42857 12.25 6.81241 12.25 7.28571C12.25 7.75902 11.8582 8.14286 11.375 8.14286Z" fill="white"/>
</svg>
